<svg width="24" height="24" viewBox="0 0 24 24" fill="none" xmlns="http://www.w3.org/2000/svg">
<path d="M19.1839 7.80493L16.2189 4.83793C14.1919 2.80793 13.1789 1.79493 12.0899 2.03493C11.0009 2.27493 10.5089 3.62193 9.52188 6.31493L8.85388 8.13793C8.59088 8.85593 8.45888 9.21493 8.22188 9.49293C8.11593 9.61793 7.99502 9.72943 7.86188 9.82493C7.56588 10.0379 7.19788 10.1389 6.46188 10.3419C4.80188 10.7999 3.97088 11.0289 3.65788 11.5719C3.52257 11.807 3.45217 12.0737 3.45388 12.3449C3.45788 12.9719 4.06688 13.5809 5.28388 14.7999L6.69988 16.2159L2.22388 20.6959C2.08748 20.8405 2.01281 21.0326 2.01571 21.2313C2.0186 21.4301 2.09884 21.6199 2.2394 21.7604C2.37995 21.901 2.56974 21.9812 2.76849 21.9841C2.96724 21.987 3.15929 21.9123 3.30388 21.7759L7.77888 17.2959L9.24488 18.7639C10.4709 19.9899 11.0839 20.6039 11.7149 20.6039C11.9799 20.6039 12.2409 20.5359 12.4719 20.4039C13.0199 20.0909 13.2499 19.2549 13.7109 17.5819C13.9129 16.8469 14.0139 16.4799 14.2259 16.1829C14.3192 16.0536 14.4265 15.9363 14.5479 15.8309C14.8229 15.5929 15.1799 15.4589 15.8929 15.1909L17.7369 14.4979C20.4009 13.4979 21.7329 12.9969 21.9669 11.9119C22.2019 10.8259 21.1969 9.81893 19.1839 7.80493Z" fill="#B1B5B8"/>
</svg>
