<svg width="40" height="40" viewBox="0 0 40 40" fill="none" xmlns="http://www.w3.org/2000/svg">
<path d="M22.9862 11.2064L15.2132 19.1804C15.0766 19.3204 15.0002 19.5083 15.0002 19.7039C15.0002 19.8995 15.0766 20.0873 15.2132 20.2274L22.9862 28.2044C23.0498 28.2697 23.1258 28.3216 23.2098 28.3571C23.2938 28.3925 23.384 28.4108 23.4752 28.4108C23.5663 28.4108 23.6566 28.3925 23.7406 28.3571C23.8245 28.3216 23.9006 28.2697 23.9642 28.2044C24.095 28.0704 24.1683 27.8906 24.1683 27.7034C24.1683 27.5161 24.095 27.3363 23.9642 27.2024L16.6547 19.7039L23.9642 12.2069C24.0946 12.073 24.1675 11.8935 24.1675 11.7066C24.1675 11.5198 24.0946 11.3403 23.9642 11.2064C23.9006 11.1411 23.8245 11.0892 23.7406 11.0537C23.6566 11.0183 23.5663 11 23.4752 11C23.384 11 23.2938 11.0183 23.2098 11.0537C23.1258 11.0892 23.0498 11.1411 22.9862 11.2064Z" fill="white"/>
</svg>
