<svg width="32" height="32" viewBox="0 0 32 32" fill="none" xmlns="http://www.w3.org/2000/svg">
<path d="M16.0001 2.6665C13.363 2.6665 10.7851 3.44849 8.59248 4.91358C6.39983 6.37866 4.69086 8.46104 3.68169 10.8974C2.67253 13.3337 2.40848 16.0146 2.92295 18.601C3.43742 21.1875 4.7073 23.5632 6.572 25.4279C8.4367 27.2926 10.8125 28.5625 13.3989 29.077C15.9853 29.5914 18.6662 29.3274 21.1025 28.3182C23.5389 27.3091 25.6213 25.6001 27.0863 23.4074C28.5514 21.2148 29.3334 18.6369 29.3334 15.9998C29.3299 12.4647 27.924 9.07537 25.4243 6.57565C22.9246 4.07593 19.5352 2.67003 16.0001 2.6665ZM23.9188 12.9505V13.8118C23.9188 13.8778 23.9056 13.943 23.88 14.0038C23.8543 14.0645 23.8168 14.1195 23.7696 14.1655C23.7223 14.2115 23.6664 14.2475 23.605 14.2715C23.5436 14.2955 23.478 14.307 23.4121 14.3052C22.0043 14.2057 20.6575 13.6917 19.5414 12.8278V19.1318C19.5411 19.8295 19.4018 20.5202 19.1317 21.1635C18.8616 21.8067 18.466 22.3898 17.9681 22.8785C17.4661 23.38 16.8691 23.7763 16.212 24.0442C15.5549 24.3121 14.851 24.4461 14.1414 24.4385C12.7146 24.4364 11.3451 23.8766 10.3254 22.8785C9.67661 22.2244 9.20928 21.4126 8.96941 20.523C8.72955 19.6335 8.72542 18.6968 8.95742 17.8052C9.16942 16.9492 9.59742 16.1625 10.2014 15.5212C10.6519 14.9706 11.2197 14.5277 11.8633 14.2248C12.5069 13.9219 13.2101 13.7667 13.9214 13.7705H15.0148V16.0412C15.0152 16.1071 15.0017 16.1724 14.9749 16.2327C14.9482 16.293 14.9089 16.3469 14.8597 16.3908C14.8105 16.4347 14.7525 16.4676 14.6896 16.4873C14.6266 16.507 14.5602 16.5131 14.4948 16.5052C13.8599 16.3145 13.1759 16.3777 12.5868 16.6816C11.9977 16.9854 11.5496 17.5061 11.3369 18.1339C11.1243 18.7617 11.1637 19.4475 11.4468 20.0468C11.73 20.6462 12.2347 21.1121 12.8548 21.3465C13.2148 21.5532 13.6174 21.6745 14.0308 21.7025C14.3508 21.7158 14.6708 21.6758 14.9748 21.5798C15.4823 21.4086 15.9237 21.0833 16.2375 20.6493C16.5513 20.2152 16.7219 19.6941 16.7254 19.1585V7.67184C16.7254 7.54476 16.7758 7.42288 16.8655 7.3329C16.9553 7.24292 17.077 7.19219 17.2041 7.19184H19.0908C19.2133 7.19199 19.3312 7.23903 19.4202 7.32333C19.5092 7.40762 19.5626 7.52277 19.5694 7.64517C19.6382 8.23348 19.825 8.80184 20.1188 9.31619C20.4125 9.83055 20.807 10.2803 21.2788 10.6385C21.9162 11.117 22.6733 11.4104 23.4668 11.4865C23.5856 11.4967 23.6967 11.5495 23.7796 11.6353C23.8624 11.7211 23.9114 11.834 23.9174 11.9532L23.9188 12.9505Z" fill="#B1B5B8"/>
</svg>
